#!OML:ASF H:\Terrain\Patient Classification 1\Animal1\Tuesday\Animal1.ASF
:FULLY-SPECIFIED
:DEGREES
3509
root 9.48115 15.2608 -22.4978 -338.865 -25.7992 3.46143
lowerback 27.7584 -2.79981 1.9248
upperback 3.75662 -2.67321 3.51083
thorax -11.0867 -1.2588 3.85538
lowerneck -8.67369 -5.66702 -8.4212
upperneck -15.5992 -6.15422 13.2175
head -2.45779 -3.20192 5.41386
rclavicle -1.19271e-015 -1.27222e-014
rhumerus 41.1871 3.4395 -47.4559
rradius 35.4656
rwrist 9.67759
rhand -13.2321 15.6482
rfingers 7.12502
rthumb 12.8694 -373.935
lclavicle -1.19271e-015 -1.27222e-014
lhumerus 13.5448 -41.1131 91.8328
lradius 84.8443
lwrist -50.4808
lhand -144.644 -130.187
lfingers 7.12502
lthumb 58.4471 -294.874
rfemur -59.3001 6.30201 8.34866
rtibia 42.5891
rfoot -4.81673 -7.54975
rtoes -22.4536
lfemur -50.5896 6.59786 -17.2096
ltibia 46.8626
lfoot -16.2431 19.2591
ltoes 10.8582
3510
root 9.46644 15.2431 -22.4986 -338.731 -25.9507 3.43536
lowerback 28.0725 -2.78176 1.83513
upperback 3.74153 -2.64718 3.63779
thorax -11.2569 -1.23693 4.06382
lowerneck -8.93833 -5.45807 -8.33781
upperneck -15.4454 -5.89156 12.9537
head -2.41483 -3.0558 5.31429
rclavicle -8.0309e-014 -1.43125e-014
rhumerus 40.5243 4.35863 -46.927
rradius 36.795
rwrist 8.32974
rhand -14.1834 15.1718
rfingers 7.12502
rthumb 11.9522 -374.467
lclavicle -8.0309e-014 -1.43125e-014
lhumerus 13.7198 -40.3293 91.6115
lradius 85.7332
lwrist -50.2682
lhand -145.793 -130.022
lfingers 7.12502
lthumb 57.4439 -293.812
rfemur -59.5909 6.2376 8.49604
rtibia 42.7784
rfoot -4.97651 -7.38498
rtoes -21.7564
lfemur -50.8769 6.79185 -17.1907
ltibia 47.1745
lfoot -16.6917 19.1901
ltoes 12.6692
3511
root 9.45135 15.2382 -22.5009 -338.356 -26.0315 3.18388
lowerback 28.0782 -2.83811 1.93222
upperback 3.74176 -2.66929 3.81734
thorax -11.2537 -1.24763 4.22239
lowerneck -8.89983 -5.22159 -8.43477
upperneck -15.4632 -5.57911 12.791
head -2.464 -2.89009 5.29112
rclavicle 4.05521e-014 -6.2816e-014
rhumerus 39.617 4.80928 -47.5344
rradius 38.6752
rwrist 6.95845
rhand -14.2685 15.1806
rfingers 7.12502
rthumb 11.8702 -374.463
lclavicle 4.05521e-014 -6.2816e-014
lhumerus 13.811 -39.2458 91.3048
lradius 86.7548
lwrist -49.8542
lhand -147.246 -129.631
lfingers 7.12502
lthumb 56.1644 -292.369
rfemur -59.9526 6.20093 8.85412
rtibia 42.9163
rfoot -5.20759 -7.31405
rtoes -21.5788
lfemur -51.2755 7.00809 -16.9598
ltibia 47.4078
lfoot -18.1189 18.7797
ltoes 18.6238
3512
root 9.43639 15.2308 -22.5021 -338.095 -26.14 3.10513
lowerback 28.1647 -2.77853 1.86066
upperback 3.71594 -2.58955 3.98316
thorax -11.321 -1.20296 4.43224
lowerneck -9.03822 -5.0944 -8.51229
upperneck -15.3282 -5.41754 12.5878
head -2.42689 -2.7917 5.23816
rclavicle -5.80451e-014 1.59028e-014
rhumerus 38.09 5.00429 -48.3643
rradius 41.199
rwrist 5.56014
rhand -14.3141 14.7464
rfingers 7.12502
rthumb 11.8262 -374.9
lclavicle -5.80451e-014 1.59028e-014
lhumerus 13.7179 -38.263 91.1283
lradius 87.7429
lwrist -49.2345
lhand -148.515 -129.12
lfingers 7.12502
lthumb 55.037 -291.008
rfemur -60.2729 6.09259 9.08294
rtibia 43.0369
rfoot -5.3741 -7.23417
rtoes -21.7808
lfemur -51.5755 7.14228 -16.8711
ltibia 47.5884
lfoot -18.2289 18.8798
ltoes 18.4816
3513
root 9.4189 15.2184 -22.5021 -337.88 -26.2655 3.01858
lowerback 28.2358 -2.71849 1.87506
upperback 3.76871 -2.50269 4.03111
thorax -11.2999 -1.16397 4.44866
lowerneck -9.51831 -4.97074 -8.32702
upperneck -15.0772 -5.27404 12.2741
head -2.31267 -2.7029 5.09528
rclavicle -5.56597e-015 -1.98785e-014
rhumerus 36.381 5.01175 -49.5276
rradius 43.8993
rwrist 4.8962
rhand -14.1293 14.5923
rfingers 7.12502
rthumb 12.0044 -375.043
lclavicle -5.56597e-015 -1.98785e-014
lhumerus 13.8813 -37.4603 90.2596
lradius 88.825
lwrist -48.0824
lhand -151.144 -128.257
lfingers 7.12502
lthumb 52.6759 -288.562
rfemur -60.5668 6.02138 9.3298
rtibia 43.1258
rfoot -5.37353 -7.07248
rtoes -22.1788
lfemur -51.8128 7.32672 -16.7776
ltibia 47.703
lfoot -18.224 18.8933
ltoes 18.3175
3514
root 9.39796 15.2123 -22.5003 -337.628 -26.3385 2.78962
lowerback 28.2287 -2.75208 1.85843
upperback 3.83528 -2.53543 4.1983
thorax -11.2085 -1.17764 4.65834
lowerneck -9.79429 -4.66932 -8.3473
upperneck -14.8254 -4.89379 11.8568
head -2.25207 -2.48659 4.96742
rclavicle 3.97569e-015 1.74931e-014
rhumerus 34.7841 5.41345 -50.7859
rradius 46.6934
rwrist 5.10471
rhand -14.4189 14.1753
rfingers 7.12502
rthumb 11.7251 -375.477
lclavicle 3.97569e-015 1.74931e-014
lhumerus 14.0064 -36.2107 89.152
lradius 89.9816
lwrist -46.726
lhand -154.354 -126.589
lfingers 7.12502
lthumb 49.7538 -285.238
rfemur -60.7966 6.02873 9.69016
rtibia 43.2289
rfoot -5.45353 -6.87891
rtoes -21.4996
lfemur -51.9916 7.62181 -16.5753
ltibia 47.7525
lfoot -15.9702 19.6601
ltoes 8.46096
3515
root 9.37683 15.2121 -22.4984 -337.645 -26.3727 2.94916
lowerback 27.9635 -2.94742 1.71196
upperback 4.03089 -2.86158 4.10943
thorax -10.8237 -1.3336 4.7289
lowerneck -9.34592 -4.20121 -8.34953
upperneck -15.0164 -4.28982 11.6434
head -2.44706 -2.19001 4.93196
rclavicle 4.69132e-014 -3.18055e-014
rhumerus 33.1085 6.06351 -52.3087
rradius 49.6999
rwrist 5.38347
rhand -15.0257 13.0997
rfingers 7.12502
rthumb 11.1399 -376.585
lclavicle 4.69132e-014 -3.18055e-014
lhumerus 13.986 -34.2733 88.0462
lradius 90.8151
lwrist -45.8373
lhand -157.621 -125.449
lfingers 7.12502
lthumb 46.7447 -282.671
rfemur -60.889 5.86533 9.70235
rtibia 43.358
rfoot -5.65446 -6.71724
rtoes -20.3099
lfemur -52.0098 7.79064 -16.7509
ltibia 47.7465
lfoot -13.4767 20.1161
ltoes -1.77902
3516
root 9.35616 15.2085 -22.4972 -337.843 -26.4372 3.19893
lowerback 28.2005 -2.96653 1.32363
upperback 4.06147 -2.98986 4.12314
thorax -10.8807 -1.37547 5.0302
lowerneck -9.44299 -3.8536 -8.22125
upperneck -14.69 -3.87129 11.1914
head -2.39632 -1.96341 4.7693
rclavicle -4.57205e-014 4.77083e-014
rhumerus 30.9245 6.64427 -53.6313
rradius 52.8349
rwrist 5.779
rhand -14.744 12.7552
rfingers 7.12502
rthumb 11.4116 -376.914
lclavicle -4.57205e-014 4.77083e-014
lhumerus 13.4951 -31.9075 87.8242
lradius 91.4731
lwrist -45.6832
lhand -160.535 -125.841
lfingers 7.12502
lthumb 44.0361 -281.972
rfemur -60.8599 5.68464 9.67298
rtibia 43.5069
rfoot -5.86119 -6.6339
rtoes -19.8763
lfemur -51.8634 7.93024 -16.9821
ltibia 47.7433
lfoot -15.3392 19.551
ltoes 4.56744
3517
root 9.3356 15.2011 -22.4982 -337.91 -26.3975 2.98238
lowerback 28.6934 -2.9602 1.39149
upperback 4.06975 -2.93895 4.14463
thorax -11.1288 -1.34795 5.03258
lowerneck -9.71833 -3.56586 -7.85205
upperneck -14.2642 -3.5474 10.706
head -2.28225 -1.79073 4.54903
rclavicle 6.2816e-014 -1.70955e-014
rhumerus 28.3905 6.93975 -55.095
rradius 56.0085
rwrist 6.38016
rhand -14.0468 12.76
rfingers 7.12502
rthumb 12.084 -376.871
lclavicle 6.2816e-014 -1.70955e-014
lhumerus 13.0484 -29.5404 87.3672
lradius 92.227
lwrist -45.6746
lhand -162.893 -126.019
lfingers 7.12502
lthumb 41.8314 -281.372
rfemur -60.7455 5.60315 10.1593
rtibia 43.6602
rfoot -6.09709 -6.5314
rtoes -19.6493
lfemur -51.7076 8.11503 -16.6877
ltibia 47.783
lfoot -15.6532 19.4303
ltoes 5.48451
3518
root 9.3171 15.1903 -22.501 -337.689 -26.1603 2.54021
lowerback 28.934 -3.04114 1.83478
upperback 4.09258 -2.89111 4.20326
thorax -11.2473 -1.34041 4.84238
lowerneck -10.295 -3.30422 -7.56245
upperneck -13.7283 -3.23987 10.2503
head -2.08227 -1.61604 4.34648
rclavicle -4.69132e-014 7.79236e-014
rhumerus 25.86 7.16005 -56.4686
rradius 59.155
rwrist 6.85842
rhand -13.4817 12.3916
rfingers 7.12502
rthumb 12.6289 -377.207
lclavicle -4.69132e-014 7.79236e-014
lhumerus 12.7087 -26.92 86.7723
lradius 92.6737
lwrist -45.6802
lhand -165.951 -125.735
lfingers 7.12502
lthumb 38.9557 -280.203
rfemur -60.781 5.45449 10.8608
rtibia 43.7876
rfoot -6.34864 -6.39996
rtoes -19.4219
lfemur -51.8492 8.24658 -16.1667
ltibia 47.8841
lfoot -15.3377 19.4839
ltoes 3.40646
